<?xml version="1.0" encoding="UTF-8" standalone="no"?>
<!-- Created with Inkscape (http://www.inkscape.org/) -->

<svg
   xmlns:dc="http://purl.org/dc/elements/1.1/"
   xmlns:cc="http://creativecommons.org/ns#"
   xmlns:rdf="http://www.w3.org/1999/02/22-rdf-syntax-ns#"
   xmlns:svg="http://www.w3.org/2000/svg"
   xmlns="http://www.w3.org/2000/svg"
   xmlns:sodipodi="http://sodipodi.sourceforge.net/DTD/sodipodi-0.dtd"
   xmlns:inkscape="http://www.inkscape.org/namespaces/inkscape"
   width="290.72015mm"
   height="290.72015mm"
   viewBox="0 0 290.72015 290.72014"
   version="1.1"
   id="svg8"
   sodipodi:docname="Icon.svg"
   inkscape:version="0.92.1 r15371">
  <defs
     id="defs2" />
  <sodipodi:namedview
     id="base"
     pagecolor="#ffffff"
     bordercolor="#666666"
     borderopacity="1.0"
     inkscape:pageopacity="0.0"
     inkscape:pageshadow="2"
     inkscape:zoom="0.24748737"
     inkscape:cx="589.42607"
     inkscape:cy="320.29309"
     inkscape:document-units="mm"
     inkscape:current-layer="layer1"
     showgrid="false"
     inkscape:window-width="1536"
     inkscape:window-height="801"
     inkscape:window-x="-8"
     inkscape:window-y="-8"
     inkscape:window-maximized="1" />
  <metadata
     id="metadata5">
    <rdf:RDF>
      <cc:Work
         rdf:about="">
        <dc:format>image/svg+xml</dc:format>
        <dc:type
           rdf:resource="http://purl.org/dc/dcmitype/StillImage" />
      </cc:Work>
    </rdf:RDF>
  </metadata>
  <g
     inkscape:label="Layer 1"
     inkscape:groupmode="layer"
     id="layer1"
     transform="translate(48.299156,-19.444849)">
    <path
       style="fill:#b1e505;fill-opacity:1;stroke:none;stroke-width:0;stroke-miterlimit:4;stroke-dasharray:none;stroke-opacity:1;paint-order:normal"
       d="m 14.161135,224.40603 -45.735123,-3e-5 -0.18899,-33.45093 45.924113,-0.18907 c 39.849605,0 76.912152,-86.36758 147.033085,-86.36758 l 26.6371,-0.14908 0.14964,-19.16292 43.07353,35.39439 -42.93791,36.22186 -0.20298,-19.18871 -26.71936,-0.23148 c -46.3038,-0.24494 -82.02121,87.12355 -147.033105,87.12355 z"
       id="rect4485-6-8-4-6"
       inkscape:connector-curvature="0"
       sodipodi:nodetypes="cccccccccccc" />
    <g
       id="g4709"
       transform="translate(-9.621703,9.621703)">
      <path
         sodipodi:nodetypes="cccccccccc"
         inkscape:connector-curvature="0"
         id="rect4485-6-8-6"
         d="m 102.78561,185.69723 c 15.79567,13.30654 37.24615,27.68217 68.03032,28.48398 l 26.6371,0.14908 0.14964,17.55931 44.1426,-33.79079 -44.00698,-36.48913 -0.20299,19.45598 -26.71935,0.23148 c -20.21701,-2.01601 -27.5436,-9.63091 -43.24858,-21.55382 z"
         style="fill:#000005;fill-opacity:0.89671362;stroke:none;stroke-width:0;stroke-miterlimit:4;stroke-dasharray:none;stroke-opacity:1;paint-order:normal" />
      <path
         sodipodi:nodetypes="ccccccc"
         inkscape:connector-curvature="0"
         id="rect4485-6-8-8-8"
         d="m 23.782831,94.173585 -45.735123,3e-5 -0.18899,33.450915 45.924113,0.18907 c 12.173992,0.53454 17.504014,3.15033 37.30873,20.46589 l 25.58358,-25.95392 C 68.374906,103.18677 40.252611,93.104505 23.782831,94.173585 Z"
         style="fill:#000000;fill-opacity:1;stroke:none;stroke-width:0;stroke-miterlimit:4;stroke-dasharray:none;stroke-opacity:1;paint-order:normal" />
    </g>
    <rect
       style="fill:none;fill-opacity:1;stroke:#000000;stroke-width:1;stroke-linecap:butt;stroke-linejoin:miter;stroke-miterlimit:4;stroke-dasharray:none;stroke-opacity:0;paint-order:stroke fill markers"
       id="rect4719"
       width="289.72015"
       height="289.72015"
       x="-47.799156"
       y="19.944849" />
  </g>
</svg>
